<mxfile host="app.diagrams.net" modified="2023-08-09T12:23:04.499Z" agent="Mozilla/5.0 (Windows NT 10.0; Win64; x64; rv:109.0) Gecko/20100101 Firefox/116.0" version="21.6.6" etag="y4555E0jHX3hKbidEYDI" type="github">
  <diagram name="Страница 1" id="_SgSxWSje88ycNQbs6yl">
    <mxGraphModel>
      <root>
        <mxCell id="0" />
        <mxCell id="1" parent="0" />
      </root>
    </mxGraphModel>
  </diagram>
</mxfile>
